<?xml version="1.0" encoding="utf-8"?>
<!-- Generator: Adobe Illustrator 16.0.4, SVG Export Plug-In . SVG Version: 6.00 Build 0)  -->
<!DOCTYPE svg PUBLIC "-//W3C//DTD SVG 1.1//EN" "http://www.w3.org/Graphics/SVG/1.1/DTD/svg11.dtd">
<svg version="1.1" id="Layer_1" xmlns="http://www.w3.org/2000/svg" xmlns:xlink="http://www.w3.org/1999/xlink" x="0px" y="0px"
	 width="100px" height="50px" viewBox="0 25 100 50" enable-background="new 0 25 100 50" xml:space="preserve">
<path fill = "#A4DBE8" stroke = "#10069F" d="M28.132,42.402l8.515-11.996c1.497-1.994,2.938-2.773,5.232-2.773h23.256c2.296,0,3.735,0.779,5.233,2.773l8.516,11.995
	h1.091c6.124,0,11.091,4.966,11.091,11.091v1.927l2.773,0.007c0.93,0,1.667,0.748,1.667,1.665v4.388
	c0,0.919-0.739,1.656-1.667,1.656l-6.038-0.004c-1.034-6.148-6.385-10.839-12.828-10.839S63.18,56.974,62.141,63.124L36.911,63.12
	c-1.039-6.152-6.386-10.828-12.828-10.828c-6.445,0-11.794,4.69-12.829,10.84l-4.897,0.004c-0.921,0-1.665-0.738-1.665-1.657v-4.388
	c0-0.917,0.744-1.665,1.665-1.665l2.931-0.007v-8.583c0-2.451,1.99-4.436,4.441-4.436L28.132,42.402L28.132,42.402z M40.162,32.711
	l-5.703,8.026c-0.653,0.919-0.435,1.665,0.487,1.665H50.76c0.922,0,1.662-0.745,1.662-1.665v-7.557c0-0.919-0.74-1.664-1.662-1.664
	l-8.492-0.001C41.342,31.516,41.004,31.6,40.162,32.711L40.162,32.711z M48.771,45.472h-4.003c-1.479,0-1.479,2.217,0,2.217h4.005
	c0.277,0.333,0.701,0.555,1.275,0.555c2.219,0,2.219-3.327-0.007-3.327C49.472,44.917,49.049,45.142,48.771,45.472L48.771,45.472z
	 M70.244,65.31c0,2.617,2.123,4.739,4.741,4.739c2.617,0,4.739-2.122,4.739-4.739s-2.122-4.739-4.739-4.739
	C72.367,60.57,70.244,62.692,70.244,65.31L70.244,65.31z M65.297,65.31c0-5.354,4.338-9.686,9.687-9.686
	c5.347,0,9.688,4.337,9.688,9.686c0,5.353-4.342,9.69-9.688,9.69C69.631,75,65.297,70.662,65.297,65.31L65.297,65.31z M19.366,65.31
	c0,2.617,2.122,4.739,4.739,4.739s4.739-2.122,4.739-4.739s-2.122-4.739-4.739-4.739S19.366,62.692,19.366,65.31L19.366,65.31z
	 M14.415,65.31c0-5.354,4.34-9.686,9.687-9.686c5.352,0,9.687,4.337,9.687,9.686c0,5.353-4.341,9.69-9.687,9.69
	C18.751,75,14.415,70.662,14.415,65.31L14.415,65.31z"/>
</svg>
