<?xml version="1.0" encoding="utf-8"?>
<!-- Generator: Adobe Illustrator 16.0.4, SVG Export Plug-In . SVG Version: 6.00 Build 0)  -->
<!DOCTYPE svg PUBLIC "-//W3C//DTD SVG 1.1 Tiny//EN" "http://www.w3.org/Graphics/SVG/1.1/DTD/svg11-tiny.dtd">
<svg version="1.1" baseProfile="tiny" id="Layer_1" xmlns="http://www.w3.org/2000/svg" xmlns:xlink="http://www.w3.org/1999/xlink"
	 x="0px" y="0px" width="100px" height="100px" viewBox="0 0 100 100" xml:space="preserve">
<g>
	<path d="M87.479,95.213H12.521c-4.062,0-7.382-1.652-9.108-4.534s-1.617-6.589,0.3-10.17l38.042-71.08
		C43.71,5.775,46.715,3.68,50,3.68c3.284,0,6.29,2.096,8.245,5.75l38.042,71.08c1.917,3.581,2.026,7.287,0.301,10.169
		C94.861,93.56,91.542,95.213,87.479,95.213z M89.725,86.567C89.858,86.344,50.209,11.833,50,11.709
		c-0.21,0.125-39.858,74.636-39.724,74.858"/>
</g>
<g>
	<path d="M43.367,34.777c-0.219-2.186,0.952-3.844,2.929-3.844h7.175c1.977,0,3.148,1.658,2.929,3.844l-3.148,28.338
		c-0.22,2.035-1.537,3.315-3.368,3.315s-3.148-1.28-3.368-3.315L43.367,34.777z M49.883,69.347c3.661,0,6.37,2.788,6.37,6.406v0.15
		c0,3.618-2.709,6.406-6.37,6.406s-6.37-2.788-6.37-6.406v-0.15C43.514,72.135,46.223,69.347,49.883,69.347z"/>
</g>
</svg>
