<?xml version="1.0" encoding="utf-8"?>
<!-- Generator: Adobe Illustrator 16.0.4, SVG Export Plug-In . SVG Version: 6.00 Build 0)  -->
<!DOCTYPE svg PUBLIC "-//W3C//DTD SVG 1.1//EN" "http://www.w3.org/Graphics/SVG/1.1/DTD/svg11.dtd">
<svg version="1.1" id="Layer_1" xmlns="http://www.w3.org/2000/svg" xmlns:xlink="http://www.w3.org/1999/xlink" x="0px" y="0px"
	 width="100px" height="50px" viewBox="0 25 100 50" enable-background="new 0 25 100 50" xml:space="preserve">
<path fill = "#A4DBE8" stroke = "#10069F"  d="M1.544,59.845c-0.827,0-1.487-0.665-1.487-1.485v-3.914c0-0.817,0.661-1.473,1.487-1.473l2.613-0.018v-7.656
	c0-2.187,1.777-3.958,3.96-3.958h12.834l7.596-10.702c1.336-1.779,2.621-2.474,4.667-2.474l32.867,0.032
	c2.047,0,3.329,0.694,4.664,2.473l7.577,10.671h13.523c2.184,0,3.957,1.771,3.957,3.958v7.662h2.452
	c0.821,0,1.484,0.666,1.484,1.484v3.914c0,0.818-0.663,1.484-1.484,1.484H80.35c-0.925-5.496-5.697-9.686-11.447-9.686
	s-10.522,4.181-11.446,9.686H28.688c-0.929-5.476-5.698-9.654-11.441-9.654c-5.741,0-10.503,4.177-11.448,9.654L1.544,59.845
	L1.544,59.845z M49.752,41.369l19.751-0.03c0.821,0,1.017-0.665,0.435-1.486l-5.092-7.161c-0.75-0.992-1.05-1.066-1.875-1.066
	l-13.219,0.032c-0.823,0-1.482,0.664-1.482,1.483v6.743C48.268,40.705,48.932,41.369,49.752,41.369L49.752,41.369z M67.445,44.073
	h-3.57c-1.318,0-1.318,1.979,0,1.979h3.577c0.245,0.294,0.625,0.494,1.14,0.494c1.979,0,1.979-2.969-0.014-2.969
	C68.07,43.578,67.691,43.777,67.445,44.073L67.445,44.073z M41.522,44.073h-3.569c-1.321,0-1.321,1.979,0,1.979h3.569
	c0.254,0.294,0.626,0.494,1.143,0.494c1.98,0,1.98-2.969-0.008-2.969C42.148,43.578,41.768,43.777,41.522,44.073L41.522,44.073z
	 M31.679,32.693l-5.09,7.161c-0.582,0.819-0.389,1.485,0.433,1.485h16.374c0.823,0,1.484-0.665,1.484-1.485v-6.742
	c0-0.82-0.661-1.484-1.484-1.484l-9.841-0.001C32.731,31.626,32.428,31.701,31.679,32.693L31.679,32.693z M64.676,61.775
	c0,2.336,1.895,4.229,4.227,4.229c2.338,0,4.231-1.893,4.231-4.229s-1.895-4.229-4.231-4.229
	C66.57,57.548,64.676,59.439,64.676,61.775L64.676,61.775z M60.258,61.775c0-4.775,3.873-8.642,8.643-8.642
	c4.777,0,8.643,3.869,8.643,8.642c0,4.774-3.872,8.646-8.643,8.646C64.127,70.421,60.258,66.551,60.258,61.775L60.258,61.775z
	 M13.022,61.807c0,2.334,1.895,4.23,4.228,4.23c2.335,0,4.227-1.896,4.227-4.23c0-2.336-1.892-4.228-4.227-4.228
	C14.917,57.579,13.022,59.471,13.022,61.807L13.022,61.807z M8.708,61.775c0-4.775,3.873-8.642,8.642-8.642
	c4.781,0,8.641,3.869,8.641,8.642c0,4.774-3.87,8.646-8.641,8.646S8.708,66.551,8.708,61.775L8.708,61.775z"/>
</svg>
