<?xml version="1.0" encoding="utf-8"?>
<!-- Generator: Adobe Illustrator 16.0.4, SVG Export Plug-In . SVG Version: 6.00 Build 0)  -->
<!DOCTYPE svg PUBLIC "-//W3C//DTD SVG 1.1//EN" "http://www.w3.org/Graphics/SVG/1.1/DTD/svg11.dtd">
<svg version="1.1" id="Layer_1" xmlns="http://www.w3.org/2000/svg" xmlns:xlink="http://www.w3.org/1999/xlink" x="0px" y="0px"
	 width="100px" height="50px" viewBox="0 25 100 50" enable-background="new 0 25 100 50" xml:space="preserve">
<path fill = "#A4DBE8" stroke = "#10069F" d="M74.896,44.631h-3.771c-1.395,0-1.395,2.091,0,2.091H74.9c0.262,0.313,0.664,0.521,1.209,0.521
	c2.091,0,2.091-3.136-0.008-3.136C75.559,44.107,75.158,44.32,74.896,44.631L74.896,44.631z M42.535,32.644l-5.37,7.562
	c-0.612,0.867-0.407,1.57,0.458,1.57h14.902c0.863,0,1.568-0.703,1.568-1.57v-7.12c0-0.866-0.705-1.569-1.568-1.569H44.52
	C43.648,31.517,43.329,31.598,42.535,32.644L42.535,32.644z M59.25,41.776h18.277c0.865,0,1.072-0.703,0.459-1.57l-5.371-7.562
	c-0.79-1.046-1.109-1.128-1.985-1.128H59.25c-0.864,0-1.566,0.704-1.566,1.57v7.119C57.684,41.073,58.386,41.776,59.25,41.776
	L59.25,41.776z M85.316,31.519h-7.844c-0.867,0-1.072,0.702-0.462,1.567l5.376,7.565c0.789,1.047,1.108,1.127,1.983,1.127
	l0.946-0.002c0.867,0,1.567-0.7,1.567-1.567v-7.121C86.886,32.221,86.186,31.519,85.316,31.519L85.316,31.519z M50.374,44.631
	h-3.771c-1.395,0-1.395,2.091,0,2.091h3.772c0.264,0.313,0.664,0.521,1.208,0.521c2.09,0,2.09-3.136-0.007-3.136
	C51.037,44.107,50.636,44.32,50.374,44.631L50.374,44.631z M90.508,43.274c3.033,1.828,5.062,5.154,5.062,8.955v1.817l2.613,0.006
	c0.866,0,1.568,0.701,1.568,1.567v4.135c0,0.866-0.702,1.566-1.568,1.566H89.65c-0.973-5.799-6.015-10.215-12.09-10.215
	c-6.074,0-11.119,4.416-12.09,10.215H30.642c-0.971-5.799-6.014-10.215-12.088-10.215c-6.076,0-11.118,4.416-12.089,10.215H1.85
	c-0.865,0-1.566-0.7-1.566-1.566V55.62c0-0.866,0.702-1.567,1.566-1.567l2.771-0.006v-1.818c0-5.771,4.68-10.453,10.453-10.453
	h16.123l8.026-11.303c1.41-1.881,2.767-2.613,4.928-2.613h41.131c2.886,0,5.226,2.339,5.226,5.227V43.274L90.508,43.274z
	 M68.432,63.363c0-5.043,4.088-9.131,9.131-9.131c5.041,0,9.131,4.088,9.131,9.131c0,5.045-4.09,9.131-9.131,9.131
	C72.52,72.494,68.432,68.408,68.432,63.363L68.432,63.363z M73.096,63.363c0,2.469,1.998,4.467,4.467,4.467
	c2.467,0,4.465-1.998,4.465-4.467c0-2.467-1.998-4.467-4.465-4.467C75.094,58.896,73.096,60.896,73.096,63.363L73.096,63.363z
	 M14.088,63.363c0,2.469,1.999,4.467,4.465,4.467c2.465,0,4.465-1.998,4.465-4.467c0-2.467-2-4.467-4.465-4.467
	C16.087,58.896,14.088,60.896,14.088,63.363L14.088,63.363z M9.422,63.363c0-5.043,4.089-9.131,9.132-9.131
	c5.042,0,9.132,4.088,9.132,9.131c0,5.045-4.09,9.131-9.132,9.131C13.511,72.494,9.422,68.408,9.422,63.363L9.422,63.363z"/>
</svg>
